<svg width="20" height="31" viewBox="0 0 20 31" fill="none" xmlns="http://www.w3.org/2000/svg">
<path d="M19.0013 0.104226C18.8429 -0.00540435 18.6407 -0.0302106 18.4604 0.0377119L5.70234 4.84856L2.43588 3.61578C2.13273 3.50145 1.79398 3.65443 1.67957 3.95758C1.56509 4.26088 1.71815 4.59948 2.02138 4.71388L5.49505 6.02484C5.62863 6.07531 5.77598 6.07531 5.9094 6.02492L18.0805 1.43545V25.1183L5.70226 29.7859L0.794232 27.9342C0.491163 27.8202 0.15241 27.9728 0.0379274 28.2761C-0.0764768 28.5794 0.076664 28.918 0.37989 29.0324L5.49497 30.9623C5.5618 30.9874 5.63192 31 5.70211 31C5.77222 31 5.84249 30.9874 5.90916 30.9623L18.8744 26.0733C19.1029 25.987 19.2542 25.7684 19.2542 25.5241V0.586884C19.2543 0.394228 19.1597 0.213857 19.0013 0.104226Z" fill="black"/>
</svg>
