<svg width="38" height="35" viewBox="0 0 38 35" fill="none" xmlns="http://www.w3.org/2000/svg">
<path d="M19.0041 30.971L13.7353 28.9844C13.6019 28.9341 13.455 28.9341 13.3218 28.9844L1.17194 33.5667V9.92098L3.64355 8.98859C3.66816 9.06468 3.69386 9.14063 3.72074 9.21657C3.84481 9.56893 3.99216 9.90723 4.15537 10.2354L3.02555 10.6619C2.79749 10.7481 2.64654 10.9663 2.64654 11.2101V30.7243C2.64654 30.9167 2.741 31.0969 2.89921 31.2063C3.05734 31.3156 3.25923 31.3405 3.43932 31.2726L13.5286 27.4659L20.4457 30.076C20.4467 30.0763 20.4475 30.0767 20.4485 30.077L26.2644 32.2715C26.3311 32.2966 26.4011 32.3092 26.4712 32.3092C26.5413 32.3092 26.6114 32.2966 26.678 32.2715L36.9741 28.3868C37.2022 28.3006 37.3532 28.0824 37.3532 27.8385V8.32426C37.3532 8.13182 37.2588 7.95166 37.1006 7.84228C36.9424 7.73298 36.7406 7.70821 36.5605 7.77595L26.4712 11.5826L15.7716 7.54515C15.8397 7.06989 15.8657 6.59799 15.8501 6.13555L20.2826 7.80728C20.3507 7.83298 20.4206 7.84509 20.4893 7.84509C20.7261 7.84509 20.9492 7.7004 21.0377 7.46577C21.1519 7.16295 20.999 6.82496 20.6962 6.71074L15.6881 4.82189C15.5041 3.97981 15.1691 3.19532 14.6869 2.51341C13.5409 0.892624 11.713 0 9.5401 0C7.3671 0 5.53927 0.892624 4.39319 2.51341C3.36408 3.96864 3.00414 5.89022 3.35619 7.84447L0.37916 8.96749C0.151023 9.05359 0 9.27196 0 9.5158V34.414C0 34.6064 0.094458 34.7866 0.252591 34.896C0.351893 34.9647 0.468462 35 0.586046 35C0.655737 35 0.72574 34.9876 0.792775 34.9623L13.5287 30.159L18.5906 32.0677C18.8935 32.1821 19.2315 32.0291 19.3457 31.7262C19.4599 31.4234 19.3069 31.0852 19.0041 30.971ZM4.73892 11.2677C5.21081 12.0166 5.74865 12.7173 6.27743 13.405C6.4615 13.6444 6.6519 13.892 6.83434 14.1353C6.84246 14.1461 6.85098 14.1566 6.85981 14.1669L8.11729 15.6213C8.63154 16.2177 9.17477 16.3429 9.53994 16.3429C9.9052 16.3429 10.4484 16.2176 10.9621 15.6219L12.2202 14.1668C12.229 14.1565 12.2376 14.146 12.2456 14.1352C12.4268 13.8934 12.616 13.6475 12.7988 13.4096C13.2797 12.7839 13.7682 12.1476 14.2081 11.4739L16.339 18.3123L3.81848 21.2729V11.6152L4.73892 11.2677ZM13.3218 26.2913L3.81848 29.8768V26.0497L17.7692 22.4791L19.7025 28.5428L13.7355 26.2913C13.6021 26.2411 13.455 26.2411 13.3218 26.2913ZM26.4712 31.0968L25.4253 30.7022L22.5848 21.277L36.1813 17.8258V27.4332L26.4712 31.0968ZM26.6781 12.7572L36.1814 9.17156V13.2712L20.8411 17.2027L18.6214 9.87301L26.2644 12.7571C26.3976 12.8075 26.5449 12.8074 26.6781 12.7572ZM17.239 9.35134L19.8821 18.0794C19.9585 18.3316 20.1902 18.4957 20.4426 18.4957C20.4907 18.4957 20.5396 18.4897 20.5884 18.4773L36.1814 14.4811V16.6167L21.7029 20.2917C21.5479 20.3311 21.4157 20.4321 21.337 20.5712C21.2582 20.7104 21.2398 20.8757 21.286 21.0287L24.0444 30.1811L21.1008 29.0704L18.7178 21.5963C18.6235 21.3007 18.3149 21.1295 18.0143 21.2067L3.81848 24.84V22.4772L17.2202 19.3083C17.3783 19.2708 17.5139 19.1695 17.5943 19.0282C17.6749 18.8871 17.6932 18.7189 17.6448 18.5637L15.0009 10.0793C15.1337 9.80043 15.2541 9.51361 15.3589 9.21727C15.4192 9.04656 15.4734 8.8753 15.5227 8.70373L17.239 9.35134ZM5.34996 3.19001C6.27017 1.88869 7.75821 1.17194 9.54002 1.17194C11.3218 1.17194 12.8098 1.88861 13.73 3.19001C14.7806 4.67579 14.9766 6.78285 14.254 8.8267C13.7527 10.2453 12.838 11.4355 11.8695 12.6956C11.6887 12.9309 11.5018 13.174 11.3203 13.4158L10.075 14.8562C9.95121 14.9999 9.75785 15.1711 9.53994 15.1711C9.32212 15.1711 9.12875 14.9999 9.00492 14.8562C9.00468 14.856 9.00452 14.8558 9.00437 14.8556L7.75954 13.4158C7.5768 13.1724 7.38858 12.9276 7.20646 12.6907C6.23884 11.4324 5.32488 10.2437 4.82587 8.8267C4.10341 6.78293 4.29928 4.67571 5.34996 3.19001Z" fill="black"/>
</svg>
